<svg xmlns="http://www.w3.org/2000/svg" width="64" height="64"><path fill="#3C4959" d="M31.367 0c-9.104 0-16.513 7.396-16.513 16.499v8.153h5.509v-8.153c0-6.06 4.944-10.99 11.004-10.99s10.99 4.93 10.99 10.99v8.153h5.509v-8.153C47.866 7.396 40.47 0 31.367 0z"/><path fill="#3AADA1" d="M56.198 27.462v33.742A2.801 2.801 0 0 1 53.388 64H10.611a2.802 2.802 0 0 1-2.81-2.796V27.462a2.804 2.804 0 0 1 2.81-2.81h42.777a2.804 2.804 0 0 1 2.81 2.81z"/><circle cx="32.022" cy="41.887" r="4.562" fill="#3C4959"/><path fill="#3C4959" d="M35.544 51.95H28.5l1.754-7.954h3.535z"/><path fill="#455C6C" d="M44.76 28.276h2.813v33.012H44.76zM15.146 28.276h2.813v33.012h-2.813z"/></svg>